# xmcd
#
# Track frame offsets: 
#        150
#        25217
#        48031
#        92103
#        117346
#        143587
#        207368
#        241855
#        271470
#        299209
#
# Disc length: 4387 seconds
#
# Revision: 2
# Processed by: cddbd v1.5.2PL0 Copyright (c) Steve Scherf et al.
# Submitted via: ExactAudioCopyFreeDBPlugin 1.0
#
DISCID=9211210a
DTITLE=Various Artist - Twelve Inch Seventies: Boogie Wonderland CD3
DYEAR=2017
DGENRE=Disco
TTITLE0=Odyssey - Native New Yorker  (12" Disco Version)
TTITLE1=Heatwave - Boogie Nights  (12" Single Version)
TTITLE2=The O'Jays - I Love Music  (12" Version)
TTITLE3=The Isley Brothers - That Lady  (Pt 1 and Pt 2)
TTITLE4=MFSB feat. The Three Degrees - TSOP (The Sound Of Philadelphia
TTITLE4=)  (Special 12" Version)
TTITLE5=Dan Hartman - Countdown - This Is It  (12" Version)
TTITLE6=John Davis Orchestra - Love Magic  (12" Version)
TTITLE7=Andrea True Connection - What's Your Name, What's Your Number 
TTITLE7=(12" Version)
TTITLE8=Tina Charles - Dance Little Lady Dance  (12" Version)
TTITLE9=Gary's Gang - Let's Love Dance Tonight  (12" Version)
EXTD=
EXTT0=
EXTT1=
EXTT2=
EXTT3=
EXTT4=
EXTT5=
EXTT6=
EXTT7=
EXTT8=
EXTT9=
PLAYORDER=
